<?xml version="1.0" encoding="iso-8859-1"?>
<!-- Generator: Adobe Illustrator 19.0.0, SVG Export Plug-In . SVG Version: 6.00 Build 0)  -->
<svg version="1.1" id="Layer_1" xmlns="http://www.w3.org/2000/svg" xmlns:xlink="http://www.w3.org/1999/xlink" x="0px" y="0px"
	 viewBox="0 0 495.993 495.993" style="enable-background:new 0 0 495.993 495.993;" xml:space="preserve">
<g>
	<g>
		<g>
			<path d="M303.997,295.657v-47.664h20c15.44,0,28-12.56,28-28s-12.56-28-28-28h-136c-15.44,0-28,12.56-28,28s12.56,28,28,28h20
				v47.664c-48.104,15.784-80,53.88-80,96.336c0,57.344,57.424,104,128,104s128-46.656,128-104
				C383.997,349.537,352.101,311.441,303.997,295.657z M367.997,391.993c0,48.52-50.24,88-112,88s-112-39.48-112-88
				c0-9.072,1.824-17.912,5.192-26.288l0.192,0.208c0.24-0.216,24.648-21.92,71.856-21.92c19.248,0,37.68,10.392,55.504,20.448
				c17.832,10.056,34.672,19.552,52.632,19.552c15.4,0,27.96-6.376,35.744-11.616C366.989,378.729,367.997,385.297,367.997,391.993z
				 M329.373,367.993c-13.768,0-28.832-8.496-44.776-17.488c-18.704-10.552-39.912-22.512-63.36-22.512
				c-21.84,0-39.384,4.208-52.648,9.24c12.68-12.464,29.64-22.312,49.584-27.968l5.824-1.648v-75.624h-36c-6.616,0-12-5.384-12-12
				c0-6.616,5.384-12,12-12h136c6.616,0,12,5.384,12,12c0,6.616-5.384,12-12,12h-36v16h-32v16h32v16h-32v16h32v11.624l5.824,1.648
				c29.736,8.424,52.872,26.16,64.944,48.04C353.485,361.321,342.781,367.993,329.373,367.993z"/>
			<path d="M215.997,359.993c-13.232,0-24,10.768-24,24s10.768,24,24,24s24-10.768,24-24S229.229,359.993,215.997,359.993z
				 M215.997,391.993c-4.408,0-8-3.592-8-8c0-4.408,3.592-8,8-8s8,3.592,8,8C223.997,388.401,220.405,391.993,215.997,391.993z"/>
			<path d="M295.997,407.993c-13.232,0-24,10.768-24,24s10.768,24,24,24s24-10.768,24-24S309.229,407.993,295.997,407.993z
				 M295.997,439.993c-4.408,0-8-3.592-8-8c0-4.408,3.592-8,8-8c4.408,0,8,3.592,8,8
				C303.997,436.401,300.405,439.993,295.997,439.993z"/>
			<path d="M231.997,95.993c0,13.232,10.768,24,24,24s24-10.768,24-24s-10.768-24-24-24S231.997,82.761,231.997,95.993z
				 M263.997,95.993c0,4.408-3.592,8-8,8c-4.408,0-8-3.592-8-8s3.592-8,8-8S263.997,91.585,263.997,95.993z"/>
			<path d="M407.997,143.993c0-13.232-10.768-24-24-24c-3.152,0-6.144,0.648-8.896,1.752c-7.096-7.72-15.4-15.624-24.752-23.576
				c10.76-9.144,20.176-18.232,27.864-26.96c1.864,0.464,3.776,0.784,5.784,0.784c13.232,0,24-10.768,24-24
				c0-6.632-2.704-12.64-7.064-16.992c0.912-6.336,0.008-11.992-2.784-16.832c-8.456-14.64-31.4-18.008-66.328-9.752
				c-23.64,5.592-51.024,16.064-79.168,30.16c-28.144-14.096-55.528-24.576-79.168-30.16c-34.928-8.264-57.872-4.888-66.328,9.752
				c-4.48,7.768-4.16,17.416,0.784,28.72c-2.48,3.776-3.944,8.264-3.944,13.104c0,13.232,10.768,24,24,24
				c2.232,0,4.36-0.408,6.416-0.984c6.128,6.312,12.984,12.696,20.496,19.096c-22.736,19.32-39.152,38.248-46.504,54.248
				c-11.52,1.752-20.408,11.632-20.408,23.64c0,13.232,10.768,24,24,24c5.536,0,10.584-1.96,14.648-5.128
				c4.144,0.888,8.816,1.328,13.96,1.328c27.368,0,67.984-12.496,112.024-34.56c13.744,6.88,27.424,13.048,40.48,18.064
				l5.736-14.936c-9.28-3.56-18.92-7.776-28.648-12.36c3.48-1.912,6.944-3.72,10.448-5.744
				c20.752-11.984,40.144-25.032,57.048-38.224c9.68,8.088,18.248,16.12,25.44,23.928c-1.936,3.464-3.136,7.392-3.136,11.632
				c0,13.232,10.768,24,24,24c0.384,0,0.744-0.096,1.12-0.112c0.288,2.256,0.192,4.512-0.832,6.288
				c-4.48,7.744-28.216,9.848-69.768-3.808l-5,15.192c15.168,4.992,36.712,10.76,55.176,10.76c14.648,0,27.368-3.632,33.448-14.16
				c3.32-5.76,3.872-12.68,1.96-20.504C404.917,157.273,407.997,151.009,407.997,143.993z M391.997,47.993c0,4.408-3.592,8-8,8
				c-4.408,0-8-3.592-8-8s3.592-8,8-8C388.405,39.993,391.997,43.585,391.997,47.993z M127.997,63.993c-4.408,0-8-3.592-8-8
				s3.592-8,8-8c4.408,0,8,3.592,8,8S132.405,63.993,127.997,63.993z M147.661,69.681c2.72-3.888,4.336-8.592,4.336-13.688
				c0-13.232-10.768-24-24-24c-2.32,0-4.52,0.432-6.64,1.048c-1.496-4.592-1.76-8.424-0.344-10.872
				c3.208-5.568,17.912-9.48,48.784-2.176c19.576,4.632,41.968,12.888,65.264,23.872c-3.472,1.904-6.944,3.808-10.416,5.808
				c-21.088,12.176-40.344,25.16-57.056,38.176C160.253,81.721,153.589,75.641,147.661,69.681z M111.997,183.993
				c-4.408,0-8-3.592-8-8s3.592-8,8-8s8,3.592,8,8S116.405,183.993,111.997,183.993z M135.581,180.137
				c0.232-1.352,0.416-2.728,0.416-4.144c0-8.584-4.568-16.072-11.36-20.312c7.304-13.592,22.552-30.176,42.976-47.216
				c16.88,13.168,36.16,26.144,57.032,38.2c3.472,2.008,6.992,3.888,10.496,5.808C191.693,172.961,155.469,181.865,135.581,180.137z
				 M272.645,132.809c-6.776,3.912-13.424,7.504-19.984,10.92c-6.696-3.488-13.392-7.096-20.016-10.92
				c-18.744-10.824-36.472-22.64-52.136-34.608c15.544-11.896,33.208-23.744,52.136-34.672c6.68-3.856,13.352-7.456,20-10.92
				c6.648,3.464,13.32,7.064,20,10.92c18.992,10.96,36.592,22.736,52.136,34.616C309.205,110.049,291.605,121.865,272.645,132.809z
				 M337.669,87.857c-16.88-13.16-36.2-26.168-57.024-38.192c-3.472-2-6.944-3.904-10.416-5.808
				c23.296-10.984,45.688-19.24,65.272-23.864c30.872-7.296,45.576-3.384,48.792,2.184c0.336,0.576,0.584,1.216,0.752,1.928
				c-0.36-0.024-0.688-0.112-1.048-0.112c-13.232,0-24,10.768-24,24c0,5.336,1.808,10.216,4.76,14.208
				C357.301,70.489,348.109,79.137,337.669,87.857z M383.997,151.993c-4.408,0-8-3.592-8-8s3.592-8,8-8c4.408,0,8,3.592,8,8
				S388.405,151.993,383.997,151.993z"/>
		</g>
	</g>
</g>
<g>
</g>
<g>
</g>
<g>
</g>
<g>
</g>
<g>
</g>
<g>
</g>
<g>
</g>
<g>
</g>
<g>
</g>
<g>
</g>
<g>
</g>
<g>
</g>
<g>
</g>
<g>
</g>
<g>
</g>
</svg>
